<?xml version="1.0" encoding="utf-8"?>
<!-- Generator: Adobe Illustrator 27.5.0, SVG Export Plug-In . SVG Version: 6.00 Build 0)  -->
<svg version="1.1" xmlns="http://www.w3.org/2000/svg" xmlns:xlink="http://www.w3.org/1999/xlink" x="0px" y="0px"
	 viewBox="0 0 750 500" style="enable-background:new 0 0 750 500;" xml:space="preserve">
<g id="BACKGROUND">
</g>
<g id="OBJECTS">
	<g>
		<g>
			<rect x="177.775" y="54.723" style="fill:#FFAA4C;" width="136.454" height="136.454"/>
			<rect x="314.333" y="191.281" style="fill:#FFAA4C;" width="136.454" height="136.454"/>
			<g>
				
					<rect x="344.361" y="231.04" style="fill:none;stroke:#FFFFFF;stroke-linecap:round;stroke-linejoin:round;stroke-miterlimit:10;" width="76.397" height="62.453"/>
				<g>
					
						<rect x="349.076" y="249.973" style="fill:none;stroke:#FFFFFF;stroke-linecap:round;stroke-linejoin:round;stroke-miterlimit:10;" width="8.705" height="8.705"/>
					
						<rect x="363.874" y="249.973" style="fill:none;stroke:#FFFFFF;stroke-linecap:round;stroke-linejoin:round;stroke-miterlimit:10;" width="8.705" height="8.705"/>
					
						<rect x="378.673" y="249.973" style="fill:none;stroke:#FFFFFF;stroke-linecap:round;stroke-linejoin:round;stroke-miterlimit:10;" width="8.705" height="8.705"/>
					
						<rect x="393.471" y="249.973" style="fill:none;stroke:#FFFFFF;stroke-linecap:round;stroke-linejoin:round;stroke-miterlimit:10;" width="8.705" height="8.705"/>
					
						<rect x="408.269" y="249.973" style="fill:none;stroke:#FFFFFF;stroke-linecap:round;stroke-linejoin:round;stroke-miterlimit:10;" width="8.705" height="8.705"/>
				</g>
				<g>
					
						<rect x="349.076" y="265.011" style="fill:none;stroke:#FFFFFF;stroke-linecap:round;stroke-linejoin:round;stroke-miterlimit:10;" width="8.705" height="8.705"/>
					
						<rect x="363.874" y="265.011" style="fill:none;stroke:#FFFFFF;stroke-linecap:round;stroke-linejoin:round;stroke-miterlimit:10;" width="8.705" height="8.705"/>
					
						<rect x="378.673" y="265.011" style="fill:none;stroke:#FFFFFF;stroke-linecap:round;stroke-linejoin:round;stroke-miterlimit:10;" width="8.705" height="8.705"/>
					
						<rect x="393.471" y="265.011" style="fill:none;stroke:#FFFFFF;stroke-linecap:round;stroke-linejoin:round;stroke-miterlimit:10;" width="8.705" height="8.705"/>
					
						<rect x="408.269" y="265.011" style="fill:none;stroke:#FFFFFF;stroke-linecap:round;stroke-linejoin:round;stroke-miterlimit:10;" width="8.705" height="8.705"/>
				</g>
				<g>
					
						<rect x="349.076" y="280.049" style="fill:none;stroke:#FFFFFF;stroke-linecap:round;stroke-linejoin:round;stroke-miterlimit:10;" width="8.705" height="8.705"/>
					
						<rect x="363.874" y="280.049" style="fill:none;stroke:#FFFFFF;stroke-linecap:round;stroke-linejoin:round;stroke-miterlimit:10;" width="8.705" height="8.705"/>
					
						<rect x="378.673" y="280.049" style="fill:none;stroke:#FFFFFF;stroke-linecap:round;stroke-linejoin:round;stroke-miterlimit:10;" width="8.705" height="8.705"/>
					
						<rect x="393.471" y="280.049" style="fill:none;stroke:#FFFFFF;stroke-linecap:round;stroke-linejoin:round;stroke-miterlimit:10;" width="8.705" height="8.705"/>
					
						<rect x="408.269" y="280.049" style="fill:none;stroke:#FFFFFF;stroke-linecap:round;stroke-linejoin:round;stroke-miterlimit:10;" width="8.705" height="8.705"/>
				</g>
				<g>
					
						<rect x="354.043" y="221.721" style="fill:none;stroke:#FFFFFF;stroke-linecap:round;stroke-linejoin:round;stroke-miterlimit:10;" width="6.38" height="9.114"/>
					
						<rect x="404.696" y="221.721" style="fill:none;stroke:#FFFFFF;stroke-linecap:round;stroke-linejoin:round;stroke-miterlimit:10;" width="6.38" height="9.114"/>
				</g>
			</g>
			<rect x="450.649" y="54.723" style="fill:#FFAA4C;" width="136.454" height="136.454"/>
			<rect x="177.775" y="326.003" style="fill:#FFAA4C;" width="136.454" height="115.368"/>
			<rect x="450.649" y="326.003" style="fill:#FFAA4C;" width="136.454" height="115.368"/>
			<rect x="587.207" y="191.281" style="fill:#FFAA4C;" width="136.454" height="136.454"/>
			<g>
				
					<ellipse transform="matrix(0.7071 -0.7071 0.7071 0.7071 7.0246 540.723)" style="fill:none;stroke:#FFFFFF;stroke-linecap:round;stroke-linejoin:round;stroke-miterlimit:10;" cx="656.223" cy="261.882" rx="53.111" ry="53.111"/>
				
					<ellipse transform="matrix(0.7071 -0.7071 0.7071 0.7071 7.0246 540.723)" style="fill:none;stroke:#FFFFFF;stroke-linecap:round;stroke-linejoin:round;stroke-miterlimit:10;" cx="656.223" cy="261.882" rx="42.531" ry="42.531"/>
				
					<ellipse transform="matrix(0.7071 -0.7071 0.7071 0.7071 7.0246 540.723)" style="fill:none;stroke:#FFFFFF;stroke-linecap:round;stroke-linejoin:round;stroke-miterlimit:10;" cx="656.223" cy="261.882" rx="27.23" ry="27.23"/>
				
					<ellipse transform="matrix(0.7071 -0.7071 0.7071 0.7071 7.0246 540.723)" style="fill:none;stroke:#FFFFFF;stroke-linecap:round;stroke-linejoin:round;stroke-miterlimit:10;" cx="656.223" cy="261.882" rx="15.389" ry="15.389"/>
				<path style="fill:none;stroke:#FFFFFF;stroke-linecap:round;stroke-linejoin:round;stroke-miterlimit:10;" d="M662.72,261.882
					c0-3.589-2.909-6.498-6.498-6.498c-3.589,0-6.498,2.909-6.498,6.498c0,3.589,2.909,6.498,6.498,6.498
					C659.811,268.38,662.72,265.471,662.72,261.882z"/>
			</g>
			<rect x="41.709" y="191.281" style="fill:#FFAA4C;" width="136.454" height="136.454"/>
			<g>
				
					<rect x="207.146" y="131.825" style="fill:none;stroke:#FFFFFF;stroke-linecap:round;stroke-linejoin:round;stroke-miterlimit:10;" width="9.344" height="28.033"/>
				
					<rect x="220.125" y="117.808" style="fill:none;stroke:#FFFFFF;stroke-linecap:round;stroke-linejoin:round;stroke-miterlimit:10;" width="9.344" height="42.05"/>
				
					<rect x="233.103" y="106.387" style="fill:none;stroke:#FFFFFF;stroke-linecap:round;stroke-linejoin:round;stroke-miterlimit:10;" width="9.344" height="53.471"/>
				
					<rect x="246.082" y="117.808" style="fill:none;stroke:#FFFFFF;stroke-linecap:round;stroke-linejoin:round;stroke-miterlimit:10;" width="9.344" height="42.05"/>
				
					<rect x="259.06" y="130.787" style="fill:none;stroke:#FFFFFF;stroke-linecap:round;stroke-linejoin:round;stroke-miterlimit:10;" width="9.344" height="29.072"/>
				
					<rect x="272.039" y="91.332" style="fill:none;stroke:#FFFFFF;stroke-linecap:round;stroke-linejoin:round;stroke-miterlimit:10;" width="9.344" height="68.526"/>
				<path style="fill:#FFFFFF;" d="M275.673,75.758l-8.889,4.518l3.76,2.447l-16.205,24.901l-15.14-18.169
					c-0.091-0.109-0.225-0.175-0.368-0.179c-0.16-0.018-0.281,0.052-0.379,0.155l-30.629,32.187c-0.19,0.2-0.183,0.517,0.018,0.707
					c0.097,0.092,0.221,0.138,0.345,0.138c0.132,0,0.264-0.052,0.362-0.155l30.242-31.78l15.215,18.258
					c0.103,0.122,0.257,0.184,0.414,0.179c0.159-0.009,0.303-0.093,0.39-0.226l16.575-25.468l3.76,2.447L275.673,75.758z"/>
			</g>
			<g>
				
					<ellipse transform="matrix(0.9951 -0.0985 0.0985 0.9951 -24.8876 11.9243)" style="fill:none;stroke:#FFFFFF;stroke-linecap:round;stroke-linejoin:round;stroke-miterlimit:10;" cx="108.274" cy="257.916" rx="41.352" ry="41.352"/>
				
					<circle style="fill:none;stroke:#FFFFFF;stroke-linecap:round;stroke-linejoin:round;stroke-miterlimit:10;" cx="108.274" cy="257.916" r="36.109"/>
				<g>
					<path style="fill:none;stroke:#FFFFFF;stroke-linecap:round;stroke-linejoin:round;stroke-miterlimit:10;" d="M107.588,287.169
						v-5.656c-3.923-0.191-6.866-1.457-8.827-3.8c-1.962-2.343-3.019-5.951-3.171-10.827l8.741-1.314
						c0.037,1.981,0.209,3.581,0.514,4.799c0.305,1.22,0.751,2.095,1.342,2.628c0.59,0.534,1.304,0.8,2.143,0.8
						c1.066,0,1.761-0.361,2.085-1.085c0.324-0.723,0.486-1.486,0.486-2.286c0-1.904-0.448-3.514-1.343-4.827
						c-0.895-1.314-2.124-2.638-3.685-3.971l-4.057-3.485c-1.143-1.029-2.181-2.086-3.114-3.171
						c-0.934-1.086-1.685-2.343-2.257-3.771c-0.571-1.429-0.857-3.133-0.857-5.114c0-3.618,1.037-6.456,3.114-8.513
						c2.076-2.057,4.866-3.219,8.37-3.486v-5.427h2.914v5.37c2.208,0.115,3.98,0.62,5.313,1.514c1.333,0.896,2.333,2,3,3.314
						c0.666,1.314,1.123,2.705,1.371,4.171c0.247,1.467,0.39,2.828,0.428,4.085l-8.856,1.086c-0.038-1.372-0.124-2.572-0.257-3.6
						c-0.134-1.028-0.4-1.818-0.8-2.371c-0.4-0.551-1.038-0.809-1.914-0.771c-0.953,0-1.657,0.4-2.114,1.2
						c-0.457,0.8-0.686,1.6-0.686,2.4c0,1.828,0.466,3.305,1.4,4.428c0.933,1.124,1.952,2.181,3.057,3.171l3.885,3.371
						c1.294,1.181,2.485,2.438,3.571,3.771c1.085,1.333,1.951,2.819,2.6,4.456c0.647,1.638,0.971,3.524,0.971,5.656
						c0,2.019-0.419,3.866-1.257,5.542c-0.839,1.677-2.038,3.038-3.6,4.085c-1.562,1.048-3.428,1.685-5.599,1.914v5.714H107.588z"/>
				</g>
			</g>
			<g>
				<path style="fill:none;stroke:#FFFFFF;stroke-linecap:round;stroke-linejoin:round;stroke-miterlimit:10;" d="M521.621,111.17
					l6.273-1.465l-0.836-6.886l-6.382,0.078c-0.291-0.967-0.643-1.906-1.051-2.816l4.765-4.119l-3.94-5.708l-5.494,2.969
					c-0.723-0.739-1.495-1.429-2.31-2.068l2.255-5.734l-6.142-3.224l-3.412,5.074c-1.003-0.323-2.035-0.577-3.091-0.764l-0.656-6.01
					h-6.936l-0.656,6.01c-1.071,0.189-2.118,0.449-3.134,0.778l-3.34-4.966l-6.142,3.223l2.211,5.622
					c-0.846,0.665-1.646,1.386-2.393,2.159l-5.283-2.855l-3.94,5.708l4.613,3.988c-0.427,0.964-0.789,1.961-1.085,2.988
					l-6.079-0.074l-0.836,6.886l6.058,1.415c0.074,1.042,0.21,2.067,0.416,3.067l-5.525,2.814l2.46,6.485l6.158-1.597
					c0.531,0.849,1.112,1.663,1.744,2.435l-3.671,5.182l5.192,4.6l4.812-4.369c0.833,0.488,1.697,0.929,2.591,1.314l-0.859,6.418
					l6.735,1.66l2.264-6.197c0.383,0.019,0.768,0.029,1.156,0.029c0.566,0,1.126-0.027,1.682-0.066l2.255,6.171l6.735-1.66
					l-0.88-6.579c0.858-0.393,1.691-0.832,2.49-1.322l4.876,4.427l5.192-4.6l-3.823-5.397c0.584-0.745,1.13-1.522,1.622-2.336
					l6.329,1.642l2.46-6.485l-5.809-2.959C521.438,113.113,521.56,112.15,521.621,111.17z M498.132,123.803
					c-7.799,0-14.122-6.323-14.122-14.122c0-7.799,6.322-14.122,14.122-14.122s14.122,6.323,14.122,14.122
					C512.254,117.481,505.931,123.803,498.132,123.803z"/>
				<path style="fill:none;stroke:#FFFFFF;stroke-linecap:round;stroke-linejoin:round;stroke-miterlimit:10;" d="M564.309,141.797
					l5.317-1.242l-0.709-5.836l-5.409,0.066c-0.246-0.819-0.545-1.615-0.891-2.387l4.039-3.491l-3.34-4.838l-4.656,2.517
					c-0.613-0.626-1.267-1.211-1.958-1.752l1.911-4.86l-5.206-2.732l-2.892,4.301c-0.85-0.273-1.725-0.489-2.62-0.647l-0.556-5.094
					h-5.879l-0.556,5.094c-0.908,0.16-1.795,0.38-2.656,0.659l-2.831-4.209l-5.206,2.732l1.874,4.765
					c-0.718,0.564-1.395,1.175-2.029,1.83l-4.478-2.42l-3.34,4.838l3.91,3.38c-0.362,0.817-0.669,1.662-0.92,2.532l-5.152-0.063
					l-0.709,5.836l5.135,1.2c0.063,0.883,0.178,1.752,0.352,2.599l-4.683,2.385l2.085,5.497l5.219-1.354
					c0.45,0.72,0.943,1.41,1.478,2.064l-3.111,4.392l4.401,3.899l4.078-3.703c0.706,0.414,1.438,0.788,2.196,1.114l-0.728,5.44
					l5.708,1.407l1.919-5.253c0.325,0.016,0.651,0.025,0.98,0.025c0.48,0,0.954-0.023,1.426-0.056l1.911,5.231l5.708-1.407
					l-0.746-5.577c0.728-0.333,1.433-0.706,2.111-1.121l4.133,3.752l4.401-3.898l-3.24-4.575c0.495-0.632,0.957-1.29,1.375-1.98
					l5.364,1.392l2.085-5.497l-4.924-2.508C564.154,143.444,564.257,142.628,564.309,141.797z M544.4,152.505
					c-6.61,0-11.969-5.359-11.969-11.969c0-6.611,5.359-11.969,11.969-11.969s11.969,5.359,11.969,11.969
					C556.37,147.146,551.011,152.505,544.4,152.505z"/>
			</g>
		</g>
		<g>
			<path style="fill:#001E6C;" d="M33.141,383.18c1.957,0.854,6.741,0.747,6.745,0.747c0.049-0.001-1.029-3.132-1.119-3.322
				c-1.05-2.196-4.37-5.823-7.071-5.458c-1.946,0.263-3.028,2.211-2.589,4.043C29.555,381.061,31.475,382.451,33.141,383.18z"/>
			<path style="fill:#001E6C;" d="M34.792,397.039c2.029,0.296,6.299-0.942,6.639-1.043c0.674,2.391,1.56,4.789,2.59,7.166
				c0.587,1.36,1.221,2.711,1.874,4.059c-0.389-0.57-0.742-1.078-0.799-1.144c-1.593-1.841-5.753-4.462-8.261-3.396
				c-1.808,0.767-2.337,2.931-1.43,4.583c0.926,1.686,3.146,2.521,4.945,2.783c1.826,0.266,5.487-0.716,6.453-0.99
				c0.256,0.514,0.505,1.031,0.763,1.543c1.237,2.462,2.481,4.914,3.628,7.356c0.405,0.86,0.771,1.723,1.142,2.584
				c-0.347-0.507-0.643-0.93-0.695-0.99c-1.593-1.841-5.752-4.462-8.261-3.396c-1.808,0.768-2.337,2.932-1.43,4.583
				c0.928,1.686,3.146,2.521,4.945,2.783c1.742,0.254,5.13-0.623,6.279-0.941c0.353,0.894,0.707,1.788,1.009,2.67
				c0.192,0.607,0.42,1.177,0.578,1.797c0.171,0.611,0.339,1.215,0.506,1.814c0.279,1.164,0.575,2.365,0.819,3.508
				c0.176,0.794,0.329,1.553,0.485,2.318c-0.393-0.861-1.197-2.531-1.281-2.663c-1.295-2.061-5.01-5.281-7.652-4.608
				c-1.903,0.485-2.754,2.544-2.107,4.314c0.661,1.807,2.727,2.968,4.466,3.5c1.914,0.585,6.153,0.051,6.682-0.02
				c0.254,1.266,0.489,2.501,0.692,3.669c0.153,0.865,0.291,1.695,0.419,2.494h1.697c-0.16-0.889-0.335-1.818-0.529-2.791
				c-0.253-1.287-0.548-2.657-0.865-4.061c0.319-0.126,2.126-0.858,3.728-1.753c1.395,1.511,4.97,3.279,5.433,3.504
				c-0.486,1.197-0.971,2.355-1.447,3.442c-0.25,0.576-0.493,1.119-0.735,1.659h1.795c0.143-0.341,0.284-0.675,0.429-1.03
				c0.499-1.213,1.009-2.519,1.519-3.865c0.513,0.107,4.708,0.959,6.664,0.518c1.773-0.401,3.921-1.404,4.715-3.158
				c0.777-1.716,0.081-3.833-1.781-4.458c-2.584-0.868-6.528,2.067-7.973,4.025c-0.086,0.115-0.871,1.473-1.351,2.337
				c0.205-0.551,0.411-1.084,0.616-1.654c0.413-1.124,0.791-2.258,1.202-3.477c0.178-0.595,0.358-1.197,0.54-1.804
				c0.193-0.599,0.321-1.255,0.485-1.888c0.352-1.476,0.636-2.988,0.888-4.518c0.985,0.358,4.502,1.582,6.324,1.454
				c1.814-0.127,4.088-0.793,5.139-2.406c1.028-1.579,0.661-3.777-1.084-4.677c-2.423-1.249-6.766,1.054-8.492,2.772
				c-0.108,0.107-1.207,1.478-1.796,2.243c0.145-0.921,0.293-1.839,0.409-2.775c0.336-2.703,0.591-5.449,0.858-8.188
				c0.081-0.839,0.172-1.674,0.261-2.51c0.349,0.132,4.498,1.676,6.539,1.533c1.813-0.127,4.089-0.793,5.139-2.406
				c1.028-1.579,0.661-3.777-1.084-4.677c-2.423-1.25-6.766,1.054-8.491,2.771c-0.13,0.13-1.709,2.105-2.086,2.627
				c0.194-1.842,0.405-3.675,0.687-5.474c0.384-2.482,0.9-4.897,1.571-7.199c0.162,0.062,4.485,1.693,6.575,1.547
				c1.814-0.128,4.089-0.794,5.139-2.406c1.028-1.579,0.662-3.776-1.084-4.677c-2.423-1.25-6.766,1.054-8.492,2.771
				c-0.135,0.135-1.833,2.261-2.114,2.669c0.041-0.137,0.067-0.283,0.109-0.419c0.748-2.449,1.781-4.727,2.852-6.812
				c0.62-1.213,1.281-2.338,1.948-3.418c0.774,0.387,4.331,2.113,6.226,2.189c1.817,0.072,4.151-0.34,5.372-1.828
				c1.196-1.456,1.072-3.681-0.563-4.768c-2.271-1.508-6.841,0.305-8.745,1.822c-0.104,0.082-1.063,1.038-1.752,1.743
				c0.308-0.483,0.618-0.987,0.923-1.443c1.14-1.717,2.29-3.22,3.32-4.542c0.591-0.747,1.141-1.411,1.662-2.027
				c0.957-0.017,4.814-0.134,6.501-0.926c1.645-0.773,3.528-2.214,3.926-4.097c0.389-1.844-0.745-3.762-2.698-3.972
				c-2.71-0.292-5.931,3.422-6.922,5.646c-0.085,0.192-1.079,3.352-1.029,3.351c0,0,0.046,0,0.058-0.001
				c-0.514,0.582-1.056,1.213-1.636,1.914c-1.061,1.303-2.246,2.784-3.428,4.483c-1.186,1.695-2.426,3.57-3.555,5.663
				c-1.134,2.096-2.219,4.359-3.037,6.836c-0.009,0.028-0.015,0.058-0.024,0.086c0.014-0.799-0.021-3.033-0.043-3.204
				c-0.313-2.414-2.336-6.895-5.017-7.391c-1.931-0.357-3.566,1.156-3.72,3.034c-0.157,1.918,1.233,3.838,2.59,5.049
				c1.529,1.366,5.774,2.689,6.112,2.793c-0.757,2.365-1.341,4.854-1.793,7.405c-0.26,1.459-0.477,2.936-0.675,4.419
				c-0.01-0.691-0.024-1.309-0.036-1.395c-0.313-2.414-2.336-6.895-5.017-7.39c-1.931-0.357-3.567,1.156-3.72,3.034
				c-0.157,1.918,1.233,3.838,2.589,5.049c1.376,1.229,4.972,2.43,5.928,2.734c-0.07,0.57-0.147,1.139-0.215,1.709
				c-0.327,2.736-0.641,5.467-1.032,8.137c-0.137,0.941-0.307,1.862-0.473,2.785c-0.01-0.613-0.023-1.13-0.033-1.208
				c-0.313-2.414-2.336-6.895-5.017-7.391c-1.932-0.357-3.567,1.156-3.722,3.035c-0.157,1.917,1.234,3.837,2.59,5.048
				c1.313,1.173,4.623,2.311,5.757,2.679c-0.199,0.94-0.396,1.881-0.632,2.783c-0.174,0.612-0.3,1.213-0.509,1.818
				c-0.195,0.603-0.387,1.201-0.578,1.792c-0.41,1.126-0.825,2.29-1.252,3.378c-0.291,0.759-0.583,1.477-0.874,2.201
				c0.147-0.935,0.397-2.771,0.401-2.927c0.037-1.617-0.537-4.246-1.68-6.094c0.007-0.239-0.007-0.477-0.045-0.713
				c-0.299-1.86-2.047-3.242-3.945-2.737c-2.634,0.701-4.305,5.326-4.43,7.756c-0.007,0.144,0.086,1.708,0.162,2.695
				c-0.133-0.573-0.255-1.131-0.399-1.719c-0.276-1.165-0.587-2.319-0.915-3.564c-0.18-0.595-0.362-1.195-0.545-1.802
				c-0.169-0.605-0.425-1.224-0.637-1.842c-0.521-1.424-1.118-2.843-1.752-4.258c1.02-0.245,4.628-1.164,6.077-2.276
				c1.443-1.107,2.972-2.918,2.959-4.842c-0.014-1.884-1.531-3.515-3.484-3.303c-2.71,0.294-5.062,4.612-5.554,6.996
				c-0.03,0.149-0.191,1.899-0.261,2.862c-0.387-0.848-0.77-1.696-1.19-2.541c-1.211-2.44-2.513-4.871-3.801-7.303
				c-0.395-0.745-0.779-1.491-1.167-2.237c0.364-0.083,4.677-1.084,6.299-2.329c1.442-1.107,2.972-2.918,2.959-4.842
				c-0.014-1.884-1.532-3.515-3.484-3.303c-2.71,0.294-5.062,4.611-5.554,6.995c-0.037,0.18-0.264,2.698-0.291,3.342
				c-0.854-1.643-1.689-3.288-2.447-4.944c-1.048-2.283-1.951-4.581-2.661-6.871c0.17-0.039,4.675-1.063,6.338-2.338
				c1.443-1.107,2.972-2.918,2.958-4.842c-0.013-1.884-1.531-3.515-3.484-3.303c-2.71,0.294-5.062,4.612-5.554,6.996
				c-0.039,0.187-0.282,2.897-0.291,3.391c-0.042-0.136-0.101-0.272-0.141-0.409c-0.726-2.456-1.122-4.925-1.379-7.256
				c-0.152-1.354-0.221-2.656-0.261-3.925c0.859-0.105,4.778-0.627,6.401-1.609c1.556-0.942,3.275-2.574,3.473-4.488
				c0.193-1.874-1.137-3.662-3.1-3.666c-2.726-0.005-5.538,4.028-6.289,6.343c-0.041,0.126-0.314,1.452-0.5,2.421
				c-0.009-0.573-0.029-1.164-0.027-1.713c0.004-2.061,0.134-3.949,0.263-5.62c0.081-0.95,0.173-1.807,0.268-2.607
				c0.789-0.543,3.941-2.768,4.911-4.359c0.947-1.552,1.721-3.793,1.014-5.583c-0.692-1.753-2.696-2.726-4.44-1.825
				c-2.422,1.252-3.059,6.127-2.659,8.528c0.035,0.207,0.95,3.39,0.991,3.363c0,0,0.038-0.026,0.047-0.033
				c-0.107,0.769-0.212,1.595-0.309,2.499c-0.166,1.671-0.338,3.561-0.386,5.63c-0.054,2.068-0.054,4.316,0.159,6.685
				c0.211,2.374,0.554,4.86,1.238,7.376c0.008,0.028,0.02,0.057,0.027,0.086c-0.429-0.674-1.691-2.518-1.804-2.648
				c-1.593-1.841-5.752-4.462-8.261-3.396c-1.807,0.768-2.337,2.932-1.429,4.584C30.775,395.944,32.993,396.777,34.792,397.039z"/>
			<path style="fill:#001E6C;" d="M81.539,384.232c0.042,0.026,0.87-3.18,0.899-3.388c0.336-2.411-0.433-7.267-2.888-8.453
				c-1.768-0.854-3.745,0.173-4.389,1.944c-0.658,1.808,0.176,4.027,1.164,5.553C77.486,381.68,81.536,384.23,81.539,384.232z"/>
		</g>
		<g>
			<path style="fill:#001E6C;" d="M650.641,383.18c1.957,0.854,6.741,0.747,6.745,0.747c0.049-0.001-1.029-3.132-1.119-3.322
				c-1.05-2.196-4.37-5.823-7.071-5.458c-1.946,0.263-3.028,2.211-2.589,4.043C647.055,381.061,648.975,382.451,650.641,383.18z"/>
			<path style="fill:#001E6C;" d="M652.293,397.039c2.029,0.296,6.299-0.942,6.639-1.043c0.674,2.391,1.56,4.789,2.59,7.166
				c0.587,1.36,1.221,2.711,1.874,4.059c-0.389-0.57-0.742-1.078-0.799-1.144c-1.593-1.841-5.753-4.462-8.261-3.396
				c-1.808,0.767-2.337,2.931-1.43,4.583c0.926,1.686,3.146,2.521,4.945,2.783c1.826,0.266,5.487-0.716,6.453-0.99
				c0.256,0.514,0.505,1.031,0.763,1.543c1.237,2.462,2.481,4.914,3.628,7.356c0.405,0.86,0.771,1.723,1.142,2.584
				c-0.346-0.507-0.643-0.93-0.695-0.99c-1.593-1.841-5.752-4.462-8.261-3.396c-1.808,0.768-2.337,2.932-1.43,4.583
				c0.927,1.686,3.146,2.521,4.945,2.783c1.742,0.254,5.13-0.623,6.279-0.941c0.353,0.894,0.707,1.788,1.009,2.67
				c0.192,0.607,0.42,1.177,0.578,1.797c0.171,0.611,0.339,1.215,0.506,1.814c0.279,1.164,0.575,2.365,0.819,3.508
				c0.176,0.794,0.329,1.553,0.485,2.318c-0.393-0.861-1.197-2.531-1.281-2.663c-1.295-2.061-5.01-5.281-7.652-4.608
				c-1.903,0.485-2.754,2.544-2.107,4.314c0.661,1.807,2.727,2.968,4.466,3.5c1.914,0.585,6.153,0.051,6.682-0.02
				c0.254,1.266,0.489,2.501,0.692,3.669c0.152,0.865,0.291,1.695,0.419,2.494h1.698c-0.16-0.889-0.335-1.818-0.529-2.791
				c-0.253-1.287-0.548-2.657-0.865-4.061c0.319-0.126,2.126-0.858,3.728-1.753c1.395,1.511,4.97,3.279,5.433,3.504
				c-0.486,1.197-0.971,2.355-1.447,3.442c-0.25,0.576-0.493,1.119-0.735,1.659h1.795c0.143-0.341,0.284-0.675,0.429-1.03
				c0.499-1.213,1.009-2.519,1.519-3.865c0.513,0.107,4.708,0.959,6.664,0.518c1.773-0.401,3.921-1.404,4.715-3.158
				c0.777-1.716,0.081-3.833-1.781-4.458c-2.584-0.868-6.528,2.067-7.973,4.025c-0.086,0.115-0.87,1.473-1.351,2.337
				c0.206-0.551,0.411-1.084,0.616-1.654c0.413-1.124,0.791-2.258,1.202-3.477c0.178-0.595,0.358-1.197,0.54-1.804
				c0.193-0.599,0.32-1.255,0.485-1.888c0.352-1.476,0.636-2.988,0.888-4.518c0.985,0.358,4.502,1.582,6.324,1.454
				c1.814-0.127,4.088-0.793,5.139-2.406c1.028-1.579,0.661-3.777-1.084-4.677c-2.423-1.249-6.766,1.054-8.492,2.772
				c-0.108,0.107-1.207,1.478-1.796,2.243c0.144-0.921,0.293-1.839,0.409-2.775c0.336-2.703,0.591-5.449,0.858-8.188
				c0.081-0.839,0.172-1.674,0.261-2.51c0.349,0.132,4.498,1.676,6.539,1.533c1.813-0.127,4.089-0.793,5.139-2.406
				c1.028-1.579,0.661-3.777-1.084-4.677c-2.423-1.25-6.766,1.054-8.491,2.771c-0.13,0.13-1.709,2.105-2.086,2.627
				c0.195-1.842,0.406-3.675,0.687-5.474c0.384-2.482,0.9-4.897,1.571-7.199c0.162,0.062,4.485,1.693,6.575,1.547
				c1.814-0.128,4.089-0.794,5.139-2.406c1.028-1.579,0.662-3.776-1.084-4.677c-2.423-1.25-6.766,1.054-8.492,2.771
				c-0.135,0.135-1.833,2.261-2.114,2.669c0.041-0.137,0.067-0.283,0.109-0.419c0.748-2.449,1.781-4.727,2.852-6.812
				c0.62-1.213,1.281-2.338,1.948-3.418c0.774,0.387,4.331,2.113,6.226,2.189c1.817,0.072,4.151-0.34,5.372-1.828
				c1.196-1.456,1.072-3.681-0.563-4.768c-2.271-1.508-6.841,0.305-8.745,1.822c-0.103,0.082-1.063,1.038-1.751,1.743
				c0.308-0.483,0.617-0.987,0.922-1.443c1.14-1.717,2.29-3.22,3.32-4.542c0.591-0.747,1.141-1.411,1.662-2.027
				c0.957-0.017,4.814-0.134,6.501-0.926c1.645-0.773,3.528-2.214,3.926-4.097c0.389-1.844-0.745-3.762-2.698-3.972
				c-2.71-0.292-5.931,3.422-6.921,5.646c-0.085,0.192-1.079,3.352-1.029,3.351c0,0,0.047,0,0.058-0.001
				c-0.513,0.582-1.056,1.213-1.636,1.914c-1.06,1.303-2.246,2.784-3.428,4.483c-1.186,1.695-2.426,3.57-3.555,5.663
				c-1.134,2.096-2.219,4.359-3.036,6.836c-0.009,0.028-0.015,0.058-0.025,0.086c0.014-0.799-0.021-3.033-0.043-3.204
				c-0.313-2.414-2.336-6.895-5.017-7.391c-1.931-0.357-3.567,1.156-3.721,3.034c-0.157,1.918,1.233,3.838,2.59,5.049
				c1.529,1.366,5.774,2.689,6.112,2.793c-0.757,2.365-1.34,4.854-1.793,7.405c-0.26,1.459-0.477,2.936-0.675,4.419
				c-0.01-0.691-0.024-1.309-0.036-1.395c-0.313-2.414-2.336-6.895-5.017-7.39c-1.931-0.357-3.567,1.156-3.72,3.034
				c-0.157,1.918,1.233,3.838,2.589,5.049c1.376,1.229,4.972,2.43,5.928,2.734c-0.07,0.57-0.146,1.139-0.215,1.709
				c-0.327,2.736-0.641,5.467-1.032,8.137c-0.137,0.941-0.307,1.862-0.473,2.785c-0.01-0.613-0.023-1.13-0.033-1.208
				c-0.313-2.414-2.336-6.895-5.016-7.391c-1.932-0.357-3.567,1.156-3.721,3.035c-0.157,1.917,1.234,3.837,2.59,5.048
				c1.313,1.173,4.623,2.311,5.757,2.679c-0.199,0.94-0.396,1.881-0.632,2.783c-0.175,0.612-0.3,1.213-0.509,1.818
				c-0.195,0.603-0.387,1.201-0.578,1.792c-0.41,1.126-0.825,2.29-1.252,3.378c-0.291,0.759-0.583,1.477-0.875,2.201
				c0.147-0.935,0.397-2.771,0.401-2.927c0.037-1.617-0.537-4.246-1.68-6.094c0.007-0.239-0.007-0.477-0.044-0.713
				c-0.299-1.86-2.047-3.242-3.945-2.737c-2.634,0.701-4.305,5.326-4.429,7.756c-0.008,0.144,0.086,1.708,0.162,2.695
				c-0.133-0.573-0.255-1.131-0.399-1.719c-0.276-1.165-0.586-2.319-0.915-3.564c-0.18-0.595-0.362-1.195-0.545-1.802
				c-0.169-0.605-0.425-1.224-0.637-1.842c-0.521-1.424-1.118-2.843-1.752-4.258c1.02-0.245,4.628-1.164,6.077-2.276
				c1.443-1.107,2.972-2.918,2.959-4.842c-0.014-1.884-1.532-3.515-3.484-3.303c-2.71,0.294-5.062,4.612-5.554,6.996
				c-0.03,0.149-0.191,1.899-0.261,2.862c-0.387-0.848-0.77-1.696-1.19-2.541c-1.211-2.44-2.513-4.871-3.801-7.303
				c-0.395-0.745-0.779-1.491-1.167-2.237c0.364-0.083,4.677-1.084,6.299-2.329c1.442-1.107,2.972-2.918,2.959-4.842
				c-0.014-1.884-1.532-3.515-3.484-3.303c-2.71,0.294-5.062,4.611-5.554,6.995c-0.037,0.18-0.264,2.698-0.291,3.342
				c-0.854-1.643-1.689-3.288-2.447-4.944c-1.048-2.283-1.951-4.581-2.661-6.871c0.17-0.039,4.675-1.063,6.338-2.338
				c1.443-1.107,2.973-2.918,2.958-4.842c-0.013-1.884-1.531-3.515-3.484-3.303c-2.71,0.294-5.062,4.612-5.554,6.996
				c-0.039,0.187-0.282,2.897-0.291,3.391c-0.042-0.136-0.101-0.272-0.141-0.409c-0.726-2.456-1.122-4.925-1.379-7.256
				c-0.152-1.354-0.221-2.656-0.261-3.925c0.859-0.105,4.778-0.627,6.401-1.609c1.556-0.942,3.275-2.574,3.473-4.488
				c0.193-1.874-1.136-3.662-3.1-3.666c-2.726-0.005-5.538,4.028-6.289,6.343c-0.041,0.126-0.314,1.452-0.5,2.421
				c-0.009-0.573-0.029-1.164-0.027-1.713c0.004-2.061,0.134-3.949,0.263-5.62c0.081-0.95,0.173-1.807,0.268-2.607
				c0.789-0.543,3.941-2.768,4.911-4.359c0.947-1.552,1.721-3.793,1.014-5.583c-0.692-1.753-2.696-2.726-4.44-1.825
				c-2.422,1.252-3.059,6.127-2.659,8.528c0.035,0.207,0.95,3.39,0.991,3.363c0,0,0.038-0.026,0.047-0.033
				c-0.107,0.769-0.212,1.595-0.309,2.499c-0.166,1.671-0.338,3.561-0.386,5.63c-0.054,2.068-0.054,4.316,0.159,6.685
				c0.211,2.374,0.553,4.86,1.238,7.376c0.008,0.028,0.02,0.057,0.028,0.086c-0.429-0.674-1.691-2.518-1.804-2.648
				c-1.593-1.841-5.752-4.462-8.261-3.396c-1.807,0.768-2.337,2.932-1.429,4.584C648.275,395.944,650.494,396.777,652.293,397.039z"
				/>
			<path style="fill:#001E6C;" d="M699.04,384.232c0.042,0.026,0.87-3.18,0.899-3.388c0.335-2.411-0.433-7.267-2.888-8.453
				c-1.768-0.854-3.745,0.173-4.389,1.944c-0.658,1.808,0.176,4.027,1.164,5.553C694.986,381.68,699.037,384.23,699.04,384.232z"/>
		</g>
		<g>
			<path style="fill:#001E6C;stroke:#FFFFFF;stroke-linecap:round;stroke-linejoin:round;stroke-miterlimit:10;" d="M317.16,314.181
				c-5.741-29.588,1.766-83.928,1.766-83.928l-26.055-0.883l-26.055,0.883c0,0,7.508,54.34,1.767,83.928
				s-22.081,59.176-22.081,59.176h46.37h46.37C339.241,373.357,322.901,343.769,317.16,314.181z"/>
			<path style="fill:#001E6C;stroke:#FFFFFF;stroke-linecap:round;stroke-linejoin:round;stroke-miterlimit:10;" d="
				M366.883,441.371h-153.43c-0.771,0-1.396-0.625-1.396-1.396v-12.519c0-0.771,0.625-1.396,1.396-1.396h153.43
				c0.771,0,1.396,0.625,1.396,1.396v12.519C368.279,440.746,367.654,441.371,366.883,441.371z"/>
			<path style="fill:#001E6C;stroke:#FFFFFF;stroke-linecap:round;stroke-linejoin:round;stroke-miterlimit:10;" d="
				M359.207,398.971l-24.946-19.879h-44.093h-44.093l-24.946,19.879c-3.62,2.884-5.728,7.261-5.728,11.889
				c0,8.396,6.806,15.202,15.202,15.202h59.565h59.565c8.396,0,15.202-6.806,15.202-15.202
				C364.935,406.231,362.827,401.855,359.207,398.971z"/>
			<path style="fill:#001E6C;stroke:#FFFFFF;stroke-linecap:round;stroke-linejoin:round;stroke-miterlimit:10;" d="
				M337.797,382.927H242.54c-1.357,0-2.456-1.1-2.456-2.457v-10.397c0-1.357,1.1-2.457,2.456-2.457h95.257
				c1.357,0,2.457,1.1,2.457,2.457v10.397C340.253,381.827,339.154,382.927,337.797,382.927z"/>
			
				<ellipse style="fill:#001E6C;stroke:#FFFFFF;stroke-linecap:round;stroke-linejoin:round;stroke-miterlimit:10;" cx="291.047" cy="162.528" rx="26.722" ry="27.007"/>
			<path style="fill:#001E6C;stroke:#FFFFFF;stroke-linecap:round;stroke-linejoin:round;stroke-miterlimit:10;" d="
				M334.722,156.503c-2.752-1.767-7.798,0.442-7.798,0.442s0-4.858-4.587-3.091c-4.587,1.766-4.587,8.832-14.678,9.274
				s-12.461-8.968-15.819-8.778c-0.299,0.017-0.548,0.032-0.776,0.046c-0.228-0.014-0.477-0.029-0.776-0.046
				c-3.358-0.19-5.728,9.219-15.819,8.778s-10.091-7.507-14.678-9.274c-4.587-1.766-4.587,3.091-4.587,3.091
				s-5.046-2.208-7.798-0.442c-2.752,1.766,5.504,4.858,11.468,11.482c5.963,6.624,6.88,19.873,6.88,19.873v26.497l24.111,1.471
				v0.146l1.2-0.073l1.199,0.073v-0.146l24.111-1.471v-26.497c0,0,0.917-13.248,6.88-19.873
				C329.217,161.361,337.474,158.269,334.722,156.503z"/>
			<path style="fill:#001E6C;stroke:#FFFFFF;stroke-linecap:round;stroke-linejoin:round;stroke-miterlimit:10;" d="
				M318.954,210.822h-56.583c-2.911,0-5.271,2.36-5.271,5.271v2.236h67.126v-2.236C324.226,213.182,321.866,210.822,318.954,210.822
				z"/>
			<path style="fill:#001E6C;stroke:#FFFFFF;stroke-linecap:round;stroke-linejoin:round;stroke-miterlimit:10;" d="
				M327.571,232.426h-74.806c-1.357,0-2.456-1.1-2.456-2.457v-10.397c0-1.357,1.1-2.457,2.456-2.457h74.806
				c1.357,0,2.457,1.1,2.457,2.457v10.397C330.028,231.327,328.928,232.426,327.571,232.426z"/>
			
				<ellipse transform="matrix(0.7071 -0.7071 0.7071 0.7071 -5.2301 243.1991)" style="fill:#001E6C;stroke:#FFFFFF;stroke-linecap:round;stroke-linejoin:round;stroke-miterlimit:10;" cx="290.952" cy="127.913" rx="7.988" ry="7.988"/>
		</g>
		
			<line style="fill:none;stroke:#001E6C;stroke-linecap:round;stroke-linejoin:round;stroke-miterlimit:10;" x1="25.857" y1="441.371" x2="727.403" y2="441.371"/>
		<g>
			<g>
				<path style="fill:#001E6C;stroke:#001E6C;stroke-linecap:round;stroke-linejoin:round;stroke-miterlimit:10;" d="
					M182.151,274.81L169.6,354.308c0,0,0.778,23.207-2.592,36.539c-3.369,13.332-4.48,25.923-4.48,25.923s2.074,0.988,2.074,2.469
					s0,3.21,0,3.21s-2.2,1.701,2.115,6.76c3.261,3.824,15.353,6.454,13.798,9.417c-1.555,2.963-11.625,2.07-16.809,1.576
					s-17.487,0.294-19.819-1.434c-2.333-1.728-1.807-2.382-1.505-5.257c0.502-4.78,2.263-11.061,2.263-11.061
					s-1.814-10.122-1.037-11.85c0.778-1.728,2.851-10.369,2.851-10.369l-1.222-49.624l-4.59-52.361l-4.518,57.298
					c0,0-4.961,41.724-5.22,44.934c-0.259,3.21-1.555,11.753-1.555,11.753s1.037,2.963,1.296,3.95
					c0.259,0.987-1.296,5.185-1.296,5.185s-1.037,15.158-1.296,16.886c-0.259,1.728-2.467,1.128-5.732,1.96
					c-2.641,0.673-12.696,1.548-17.544,0.563c-2.641-0.536-3.953-1.808-2.151-4.44c1.9-2.775,7.017-6.958,7.888-9.222
					c1.938-5.036,1.47-6.735,1.47-6.735s-3.11-6.913-3.11-8.641s2.333-10.025,2.333-10.025s-3.369-14.566-2.074-26.664
					c1.296-12.098-1.89-22.961-1.89-23.948c0-0.988-2.851-47.402-3.11-48.884c-0.259-1.481-2.333-11.604-3.369-17.035
					c-1.037-5.432-0.777-8.394-1.037-10.369s0.518-7.407,0.518-7.407l44.839-19.504L182.151,274.81z"/>
			</g>
			<g>
				<path style="fill:#5089C6;stroke:#001E6C;stroke-linecap:round;stroke-linejoin:round;stroke-miterlimit:10;" d="
					M127.015,147.31c0,0-18.129,10.451-20.901,11.517c-2.773,1.066-11.73,4.692-11.944,7.465c-0.213,2.773,7.252,63.13,7.252,63.13
					l-5.972,48.841c0,0,4.266,5.332,20.688,10.024c16.422,4.692,23.247,3.199,23.247,3.199l6.185-14.929l4.692,16.422
					c0,0,15.783-3.839,21.541-6.825s13.223-10.664,13.223-10.664l-12.583-39.03l-4.266-21.114l9.598-54.599
					c0,0-21.541-11.304-31.992-12.797C135.333,146.456,127.015,147.31,127.015,147.31z"/>
				<path style="fill:none;stroke:#001E6C;stroke-linecap:round;stroke-linejoin:round;stroke-miterlimit:10;" d="M131.284,194.302
					c1.505,1.688,3.267,3.363,5.29,4.828"/>
				<path style="fill:none;stroke:#001E6C;stroke-linecap:round;stroke-linejoin:round;stroke-miterlimit:10;" d="M120.385,154.192
					c0,0-1.116,2.512-1.396,6.699c-0.279,4.187,1.396,17.026,1.396,17.026l10.607-0.837l-6.42,6.978c0,0,1.161,2.737,3.529,6.176"/>
				<path style="fill:none;stroke:#001E6C;stroke-linecap:round;stroke-linejoin:round;stroke-miterlimit:10;" d="M162.657,166.031
					c0.577,3.541,0.992,6.862,0.992,6.862l-8.094,0.558l7.536,4.187c0,0-1.954,8.932-3.908,15.91
					c-1.954,6.978-5.303,12.002-5.303,12.002"/>
				<path style="fill:none;stroke:#001E6C;stroke-linecap:round;stroke-linejoin:round;stroke-miterlimit:10;" d="M158.625,154.192
					c0,0,1.675,1.396,2.791,5.582c0.241,0.904,0.482,2.03,0.712,3.239"/>
				<path style="fill:#FFFFFF;stroke:#001E6C;stroke-linecap:round;stroke-linejoin:round;stroke-miterlimit:10;" d="
					M126.107,150.682l2.094,8.552l19.025,38.922c0,0,4.189-37.874,4.363-41.54c0.175-3.665-1.396-7.156-1.396-7.156L126.107,150.682
					z"/>
				<polygon style="fill:#001E6C;stroke:#001E6C;stroke-linecap:round;stroke-linejoin:round;stroke-miterlimit:10;" points="
					135.881,164.296 141.99,170.579 140.594,184.193 147.226,198.156 148.622,182.797 144.085,169.881 147.226,162.725 
					139.547,156.442 				"/>
				<path style="fill:#FFFFFF;stroke:#001E6C;stroke-linecap:round;stroke-linejoin:round;stroke-miterlimit:10;" d="
					M151.59,156.616c0.175-3.665-1.396-7.156-1.396-7.156l-24.086,1.222l2.094,8.552l4.523,9.253l0.015-0.003l8.203-6.982
					l9.658,5.408C151.139,161.741,151.538,157.695,151.59,156.616z"/>
				<path style="fill:#FFFFFF;stroke:#001E6C;stroke-linecap:round;stroke-linejoin:round;stroke-miterlimit:10;" d="
					M123.489,138.464l2.618,12.218l14.836,10.821l9.25-12.043l0.698-4.887c0,0-4.712,3.491-8.901,3.142
					C137.801,147.366,123.489,138.464,123.489,138.464z"/>
				<g>
					<path style="fill:#FFFFFF;stroke:#001E6C;stroke-linecap:round;stroke-linejoin:round;stroke-miterlimit:10;" d="
						M124.585,100.671c0,0-8.905,5.725-9.541,11.927c-0.636,6.202,3.339,14.63,3.339,14.63s-3.658-1.272-3.817,2.544
						c-0.159,3.816,2.385,6.997,4.294,7.474c1.908,0.477,2.862,0.318,2.862,0.318s2.862,4.771,5.884,7.474
						c3.021,2.703,13.199,7.315,16.856,6.52s6.52-5.725,8.587-11.768c2.067-6.043,0.477-11.768,0.159-17.015
						c-0.318-5.248,1.272-8.428,0.477-11.29c-0.795-2.862-5.407-10.654-14.789-12.563
						C129.515,97.013,124.585,100.671,124.585,100.671z"/>
					<path style="fill:#001E6C;stroke:#001E6C;stroke-linecap:round;stroke-linejoin:round;stroke-miterlimit:10;" d="
						M131.972,92.218c-4.472-0.229-11.317,1.49-15.798,6.093c0.298-0.659-0.653-1.524-0.653-1.524s-2.193-2.925-6.946-2.011
						c-4.753,0.914-5.667,5.666-5.484,7.86c0.183,2.193,1.828,3.839,3.473,3.656c1.645-0.183,2.559-0.914,3.838-2.376
						c1.28-1.462,1.645-4.57,4.387-4.935c0.503-0.067,0.844-0.184,1.068-0.329c-2.488,2.703-4.176,6.347-4.176,11.114
						c0,7.223,1.255,12.492,5.445,17.26c0.693,0.008,1.256,0.2,1.256,0.2s2.789,1.668,4.467-0.489
						c1.678-2.158-0.24-5.514,3.836-7.192c4.075-1.678,3.081-4.101,2.349-5.565c-2.64-5.28-0.281-9.869,4.034-9.15
						c4.315,0.719,6.596,2.73,11.15,2.011c2.176-0.344,4.308-1.715,4.73-2.552c2.772,2.704,4.311,5.658,4.737,7.194
						c0.191,0.689,0.24,1.398,0.215,2.148c0.149-0.444,0.23-0.828,0.306-1.101C156.1,105.745,142.971,92.783,131.972,92.218z"/>
					<path style="fill:none;stroke:#001E6C;stroke-linecap:round;stroke-linejoin:round;stroke-miterlimit:10;" d="M147.484,121.821
						c0,0-1.431,3.339-0.795,5.566c0.636,2.226,2.41,6.587,1.933,7.064s-5.889-0.075-5.889-0.075"/>
					<path style="fill:none;stroke:#001E6C;stroke-linecap:round;stroke-linejoin:round;stroke-miterlimit:10;" d="M137.148,138.836
						c0,0,2.067,3.021,6.043,3.18"/>
					<path style="fill:none;stroke:#001E6C;stroke-linecap:round;stroke-linejoin:round;stroke-miterlimit:10;" d="M140.328,120.23
						c0,0-3.339-1.113-7.792,1.908"/>
					<path style="fill:none;stroke:#001E6C;stroke-linecap:round;stroke-linejoin:round;stroke-miterlimit:10;" d="M148.757,119.117
						c0,0,0.795-3.021,3.658-2.067"/>
					<path style="fill:#001E6C;" d="M140.472,125.771c0.189,1.126-0.149,2.121-0.755,2.223c-0.606,0.102-1.251-0.728-1.441-1.854
						c-0.189-1.126,0.148-2.121,0.755-2.223C139.638,123.814,140.283,124.645,140.472,125.771z"/>
					<path style="fill:#001E6C;" d="M152.224,124.314c0.189,1.126-0.148,2.121-0.755,2.223c-0.606,0.102-1.251-0.728-1.441-1.854
						c-0.189-1.126,0.148-2.121,0.755-2.223C151.39,122.358,152.035,123.188,152.224,124.314z"/>
				</g>
				<g>
					<path style="fill:#5089C6;stroke:#001E6C;stroke-linecap:round;stroke-linejoin:round;stroke-miterlimit:10;" d="
						M177.775,160.746c0,0,17.489,49.694,18.982,54.599c1.493,4.905-2.773,10.451-2.773,10.451l-24.74-3.626l-1.066-6.825
						L177.775,160.746z"/>
					<path style="fill:#5089C6;stroke:#001E6C;stroke-linecap:round;stroke-linejoin:round;stroke-miterlimit:10;" d="
						M104.408,160.32c0,0-13.437,4.266-15.356,7.251c-1.92,2.986,1.066,35.618,3.412,42.869
						c2.346,7.252,18.129,31.139,21.115,31.778c2.986,0.64,42.016-11.517,42.016-11.517l-3.839-12.157l-31.352-2.773l-16.209-41.163
						"/>
					
						<line style="fill:none;stroke:#001E6C;stroke-linecap:round;stroke-linejoin:round;stroke-miterlimit:10;" x1="120.83" y1="218.544" x2="126.162" y2="227.715"/>
					<polygon style="fill:#FFFFFF;stroke:#001E6C;stroke-linecap:round;stroke-linejoin:round;stroke-miterlimit:10;" points="
						142.584,206.388 136.399,204.895 132.987,217.691 138.319,218.758 					"/>
					<path style="fill:#5089C6;stroke:#001E6C;stroke-linecap:round;stroke-linejoin:round;stroke-miterlimit:10;" d="
						M193.558,211.933c0,0,2.559,1.919,3.412,4.905c0.853,2.986,1.493,11.73-1.066,13.65c-2.559,1.919-17.702,2.986-17.702,2.986
						l-41.589-13.223l4.052-15.569l45.002,6.398"/>
					<path style="fill:#FFFFFF;stroke:#001E6C;stroke-linecap:round;stroke-linejoin:round;stroke-miterlimit:10;" d="
						M135.719,206.035c0,0-8.953-2.238-9.97-2.442c-1.017-0.203-9.156,2.34-9.156,2.34l3.811,9.839l3.82,0.335l4.883-2.137
						l4.375,1.017L135.719,206.035z"/>
					<g>
						<path style="fill:#FFFFFF;stroke:#001E6C;stroke-linecap:round;stroke-linejoin:round;stroke-miterlimit:10;" d="
							M162.781,207.662l7.528-4.781c0,0,6.308-1.831,6.613-1.729c0,0,0.712,0,0.509,0.916c0,0,2.035-1.119,2.645,0.102
							c0.61,1.221-0.407,1.628-0.407,1.628s2.035-0.712,2.34,0.814c0.305,1.526-4.578,5.188-4.578,5.188L162.781,207.662z"/>
						<path style="fill:none;stroke:#001E6C;stroke-linecap:round;stroke-linejoin:round;stroke-miterlimit:10;" d="M177.43,202.067
							c0,0-8.648,3.866-10.581,5.901"/>
						<path style="fill:none;stroke:#001E6C;stroke-linecap:round;stroke-linejoin:round;stroke-miterlimit:10;" d="
							M179.669,203.796c0,0-4.883,3.561-7.935,4.883"/>
					</g>
				</g>
			</g>
		</g>
		<g>
			<g>
				<path style="fill:#001E6C;stroke:#001E6C;stroke-linecap:round;stroke-linejoin:round;stroke-miterlimit:10;" d="
					M584.022,275.81l14.813,79.498c0,0-0.741,23.207,2.469,36.539c3.21,13.332,6.172,25.923,6.172,25.923s-1.975,0.988-1.975,2.469
					s0,3.21,0,3.21s2.095,1.701-2.015,6.76c-3.107,3.824-14.625,6.454-13.144,9.417c1.481,2.963,11.074,2.07,16.011,1.576
					c4.938-0.494,16.657,0.294,18.879-1.434c2.222-1.728,1.721-2.382,1.434-5.257c-0.478-4.78-2.155-11.061-2.155-11.061
					s1.728-10.122,0.987-11.85c-0.741-1.728-2.716-10.369-2.716-10.369l-0.741-49.624l0.247-45.427l9.382,50.365
					c0,0,5.678,41.724,5.925,44.934c0.247,3.21,1.481,11.753,1.481,11.753s-0.988,2.963-1.234,3.95
					c-0.247,0.987,1.234,5.185,1.234,5.185s0.987,15.158,1.234,16.886c0.247,1.728,2.35,1.128,5.46,1.96
					c2.516,0.673,12.094,1.548,16.712,0.563c2.516-0.536,3.766-1.808,2.049-4.44c-1.81-2.775-6.684-6.958-7.514-9.222
					c-1.846-5.036-1.4-6.735-1.4-6.735s2.963-6.913,2.963-8.641s-2.222-10.025-2.222-10.025s3.21-14.566,1.975-26.664
					c-1.234-12.098-2.963-22.961-2.963-23.948c0-0.988,2.716-47.402,2.963-48.884c0.247-1.481,2.222-11.604,3.209-17.035
					c0.988-5.432,0.741-8.394,0.988-10.369s-0.494-7.407-0.494-7.407l-42.712-19.504L584.022,275.81z"/>
			</g>
			<g>
				<path style="fill:#FFFFFF;stroke:#001E6C;stroke-linecap:round;stroke-linejoin:round;stroke-miterlimit:10;" d="
					M662.848,263.294l-7.169,7.013l-3.429,4.831l6.39,10.909c0,0,2.961-1.714,4.675-4.208c1.714-2.493,5.143-8.883,5.143-8.883
					l2.805-3.273L662.848,263.294z"/>
				<polygon style="fill:#FFFFFF;stroke:#001E6C;stroke-linecap:round;stroke-linejoin:round;stroke-miterlimit:10;" points="
					663.939,260.489 661.757,265.164 671.731,273.268 673.757,270.151 				"/>
				<path style="fill:#5089C6;stroke:#001E6C;stroke-linecap:round;stroke-linejoin:round;stroke-miterlimit:10;" d="
					M672.374,179.452c0,0,2.584,2.646,2.584,4.67c0,2.023,0,4.624,0,4.624s10.467,49.098,11.045,50.543
					c0.578,1.445-11.912,31.824-11.912,31.824l-10.693-9.248l3.531-24.021l-10.467-27.423
					C656.461,210.421,661.986,184.609,672.374,179.452z"/>
			</g>
			<path style="fill:#5089C6;stroke:#001E6C;stroke-linecap:round;stroke-linejoin:round;stroke-miterlimit:10;" d="
				M620.069,161.596c0,0-31.558,5.435-32.226,7.441c-0.669,2.006-24.237,45.631-24.237,45.631l24.74,2.675l1.56,25.409
				l-11.144,36.107c0,0,5.572,7.132,13.596,10.03c8.024,2.898,13.15,2.675,13.15,2.675l13.373-34.547c0,0,2.898,17.831,8.693,25.632
				c5.795,7.801,6.909,9.807,6.909,9.807s12.482-7.801,18.5-11.367c6.018-3.566,10.03-10.921,11.144-13.15
				c1.115-2.229,2.229-11.367,2.229-11.367l-13.819-20.951c0,0-1.114-7.801-1.114-8.693c0-0.892,5.349-14.042,5.349-14.042
				s6.909-18.722,9.807-24.963c2.897-6.241,7.132-7.578,5.795-8.47c-3.805-2.537-22.957-15.156-25.409-16.493
				c-2.452-1.337-5.126-3.12-9.361-3.12C633.369,159.838,620.069,161.596,620.069,161.596z"/>
			<path style="fill:none;stroke:#001E6C;stroke-linecap:round;stroke-linejoin:round;stroke-miterlimit:10;" d="M627.755,222.541
				c-4.326,5.478-8.025,9.804-8.025,9.804"/>
			<path style="fill:none;stroke:#001E6C;stroke-linecap:round;stroke-linejoin:round;stroke-miterlimit:10;" d="M648.19,178.333
				c-0.051,3.621-0.268,6.004-0.268,6.004l-7.257,0.837l7.815,6.42c0,0-3.908,5.024-8.932,14.235
				c-2.036,3.733-5.677,8.796-9.288,13.498"/>
			<path style="fill:none;stroke:#001E6C;stroke-linecap:round;stroke-linejoin:round;stroke-miterlimit:10;" d="M648.201,166.473
				c0,0,0,3.948,0,7.833"/>
			<path style="fill:none;stroke:#001E6C;stroke-linecap:round;stroke-linejoin:round;stroke-miterlimit:10;" d="M608.008,201.921
				c0,0,2.512,17.026,7.815,27.912"/>
			<path style="fill:#FFFFFF;stroke:#001E6C;stroke-linecap:round;stroke-linejoin:round;stroke-miterlimit:10;" d="M642.01,161.044
				c0,0-4.407,21.306-10.647,39.137c-6.241,17.831-12.927,28.975-12.927,28.975s-4.012-42.794-4.235-52.601
				c-0.223-9.807,3.622-13.365,3.622-13.365L642.01,161.044z"/>
			<path style="fill:#001E6C;stroke:#001E6C;stroke-linecap:round;stroke-linejoin:round;stroke-miterlimit:10;" d="
				M618.435,229.155c0,0,5.522-9.205,11.213-24.265l-2.521-20.757l7.355-10.699l-7.132-6.241l-5.945,7.114l2.379,9.602
				l-7.677,19.193C617.232,216.324,618.435,229.155,618.435,229.155z"/>
			<path style="fill:#FFFFFF;stroke:#001E6C;stroke-linecap:round;stroke-linejoin:round;stroke-miterlimit:10;" d="
				M637.126,181.259c3.019-11.204,4.884-20.216,4.884-20.216l-24.188,2.146c0,0-3.845,3.558-3.622,13.365
				c0.017,0.737,0.055,1.664,0.112,2.742l11.898-5.769L637.126,181.259z"/>
			<path style="fill:#FFFFFF;stroke:#001E6C;stroke-linecap:round;stroke-linejoin:round;stroke-miterlimit:10;" d="
				M617.042,154.217c0,0,0,7.412,0.78,8.973c0.78,1.56,8.388,10.338,8.388,10.338s15.215-11.704,15.8-12.484
				c0.585-0.78,0.39-10.729,0.39-10.729s-8.193,6.437-12.874,7.217C624.844,158.313,617.042,154.217,617.042,154.217z"/>
			<g>
				<path style="fill:#FFFFFF;stroke:#001E6C;stroke-linecap:round;stroke-linejoin:round;stroke-miterlimit:10;" d="
					M613.336,125.152c0,0,0.39,12.289,0.78,16.58c0.39,4.291,0.585,10.338,1.56,12.484c0.975,2.146,7.412,7.022,8.973,7.607
					c1.56,0.585,4.681,0.975,6.632,0.585c1.951-0.39,9.558-6.827,10.924-9.168c1.365-2.341,3.121-7.803,3.121-7.803
					s5.462-2.341,6.047-8.583c0.585-6.242-2.926-6.437-2.926-6.437s0.78-6.437-2.341-9.948c-3.121-3.511-15.215-3.316-21.652-2.146
					C618.017,119.495,613.336,125.152,613.336,125.152z"/>
				<path style="fill:#001E6C;stroke:#001E6C;stroke-linecap:round;stroke-linejoin:round;stroke-miterlimit:10;" d="
					M644.447,111.726c0,0-12.098-10.724-15.673-10.174c-3.575,0.55-17.598,5.774-18.422,7.699s-2.75,4.674-2.75,4.674l5.224-1.1
					c0,0-4.949,4.949-5.499,6.049c-0.55,1.1,0.55,4.949,1.375,5.774c0.825,0.825,3.574-1.65,3.574-1.65s-1.65,2.475,0.55,3.575
					c2.2,1.1,3.849,2.475,3.849,2.475l5.499-4.399l0.825,2.75c0,0,3.575-1.65,5.499-2.475c1.925-0.825,9.624-4.399,10.448-4.399
					c0.825,0,2.75,2.2,2.2,3.575c-0.55,1.375-1.375,1.925-1.1,3.024c0.275,1.1,3.574,3.85,3.574,3.85l0.275,5.774l1.925,1.375
					l1.375-4.949l3.3-0.825l3.849-2.475c0,0-2.2-3.575-2.2-5.224c0-1.65,1.1-8.249-0.275-10.999
					C650.496,110.901,644.447,111.726,644.447,111.726z"/>
				<path style="fill:none;stroke:#001E6C;stroke-linecap:round;stroke-linejoin:round;stroke-miterlimit:10;" d="M624.844,129.638
					c0,0,1.17,4.486,1.365,5.657c0.195,1.17-5.072,9.168-3.316,10.338c1.756,1.17,5.657,1.17,5.657,1.17"/>
				
					<line style="fill:none;stroke:#001E6C;stroke-linecap:round;stroke-linejoin:round;stroke-miterlimit:10;" x1="624.649" y1="151.29" x2="628.551" y2="151.681"/>
				<path style="fill:none;stroke:#001E6C;stroke-linecap:round;stroke-linejoin:round;stroke-miterlimit:10;" d="M629.916,128.858
					c0,0,4.291-3.121,7.022-0.39"/>
				<path style="fill:none;stroke:#001E6C;stroke-linecap:round;stroke-linejoin:round;stroke-miterlimit:10;" d="M622.894,129.833
					c0,0-3.463-1.766-6.218-0.785"/>
				<path style="fill:#001E6C;" d="M634.943,136.964c0,1.017-0.47,1.842-1.051,1.842s-1.05-0.825-1.05-1.842
					c0-1.017,0.47-1.842,1.05-1.842S634.943,135.947,634.943,136.964z"/>
				<path style="fill:#001E6C;" d="M622.309,136.076c0,1.017-0.47,1.842-1.05,1.842s-1.051-0.825-1.051-1.842
					c0-1.017,0.47-1.842,1.051-1.842S622.309,135.058,622.309,136.076z"/>
				<path style="fill:none;stroke:#001E6C;stroke-linecap:round;stroke-linejoin:round;stroke-miterlimit:10;" d="M613.531,130.029
					c0,0-2.341,0-1.951,2.926c0.39,2.926,2.146,5.657,2.146,5.657L613.531,130.029z"/>
			</g>
			<g>
				<g>
					<path style="fill:#FFFFFF;stroke:#001E6C;stroke-linecap:round;stroke-linejoin:round;stroke-miterlimit:10;" d="
						M614.367,163.247c0,0,3.301-6.302,4.352-6.603c1.05-0.3,7.053,2.401,7.653,3.001c0.6,0.6,1.351,2.251,0.15,2.551
						c-1.2,0.3-3.901-0.9-4.802-0.9c-0.9,0-1.651,0.3-1.651,0.3l-2.335,3.915L614.367,163.247z"/>
					<path style="fill:#FFFFFF;stroke:#001E6C;stroke-linecap:round;stroke-linejoin:round;stroke-miterlimit:10;" d="
						M614.667,162.046c0,0,8.403,6.002,8.703,6.753c0.3,0.75-1.2,3.451-1.2,3.451s-5.702,6.903-6.152,8.103
						c-0.45,1.2-1.501,2.251-2.551,2.251s-1.801-0.3-1.801-0.3s0.15,2.551-1.501,3.301c-1.651,0.75-3.751,1.201-3.751,1.201
						l-1.651,2.251l-5.702-5.402c0,0,10.954-20.858,12.305-21.908C612.716,160.696,614.667,162.046,614.667,162.046z"/>
					<path style="fill:#FFFFFF;stroke:#001E6C;stroke-linecap:round;stroke-linejoin:round;stroke-miterlimit:10;" d="M623.37,170.9
						c0,0,3.729,0.755,2.84,2.628c-0.889,1.873-4.04,4.874-4.94,5.175c-0.9,0.3-1.951-2.701-1.951-2.701L623.37,170.9z"/>
					
						<line style="fill:none;stroke:#001E6C;stroke-linecap:round;stroke-linejoin:round;stroke-miterlimit:10;" x1="613.148" y1="165.279" x2="621.12" y2="173.15"/>
					
						<line style="fill:none;stroke:#001E6C;stroke-linecap:round;stroke-linejoin:round;stroke-miterlimit:10;" x1="610.99" y1="169.18" x2="619.319" y2="176.001"/>
					
						<line style="fill:none;stroke:#001E6C;stroke-linecap:round;stroke-linejoin:round;stroke-miterlimit:10;" x1="609.662" y1="173.744" x2="616.55" y2="178.724"/>
					<path style="fill:none;stroke:#001E6C;stroke-linecap:round;stroke-linejoin:round;stroke-miterlimit:10;" d="M611.666,182.304
						c0,0-2.101-1.05-0.6-2.401"/>
				</g>
				<polygon style="fill:#FFFFFF;stroke:#001E6C;stroke-linecap:round;stroke-linejoin:round;stroke-miterlimit:10;" points="
					599.599,180.919 609.111,190.431 606.185,195.004 596.49,185.126 				"/>
				<path style="fill:#5089C6;stroke:#001E6C;stroke-linecap:round;stroke-linejoin:round;stroke-miterlimit:10;" d="
					M597.038,183.846l12.256,12.622c0,0-25.06,29.816-25.609,31.097c-0.549,1.28-6.585,6.036-11.158,6.219
					c-4.573,0.183-10.609-4.573-11.341-10.427c-0.732-5.854,1.829-9.329,4.573-12.439
					C568.502,207.809,597.038,183.846,597.038,183.846z"/>
			</g>
		</g>
		<g>
			<path style="fill:#001E6C;stroke:#FFFFFF;stroke-linecap:round;stroke-linejoin:round;stroke-miterlimit:10;" d="
				M435.957,331.573v-22.048h-41.042v22.048c0,13.993-2.423,27.92-7.535,40.947c-1.657,4.222-3.581,8.354-5.766,11.87h67.643
				c-2.185-3.515-4.109-7.648-5.766-11.87C438.38,359.493,435.957,345.567,435.957,331.573z"/>
			
				<ellipse style="fill:#001E6C;stroke:#FFFFFF;stroke-linecap:round;stroke-linejoin:round;stroke-miterlimit:10;" cx="414.892" cy="252.201" rx="31.373" ry="43.626"/>
			<path style="fill:#001E6C;stroke:#FFFFFF;stroke-linecap:round;stroke-linejoin:round;stroke-miterlimit:10;" d="
				M402.162,212.329c-3.153,1.95-6.034,4.596-8.536,7.807l23.34,25.645c2.15,2.362,5.808,2.535,8.171,0.385
				c2.362-2.15,2.535-5.808,0.385-8.171L402.162,212.329z"/>
			
				<rect x="391.875" y="282.924" style="fill:#001E6C;stroke:#FFFFFF;stroke-linecap:round;stroke-linejoin:round;stroke-miterlimit:10;" width="45.602" height="11.781"/>
			<path style="fill:#001E6C;stroke:#FFFFFF;stroke-linecap:round;stroke-linejoin:round;stroke-miterlimit:10;" d="
				M447.575,299.835h-65.799v-1.74c0-2.292,1.858-4.15,4.15-4.15h57.498c2.292,0,4.15,1.858,4.15,4.15V299.835z"/>
			<path style="fill:#001E6C;stroke:#FFFFFF;stroke-linecap:round;stroke-linejoin:round;stroke-miterlimit:10;" d="
				M451.932,311.572H377.42c-1.357,0-2.457-1.1-2.457-2.457v-7.226c0-1.357,1.1-2.457,2.457-2.457h74.512
				c1.357,0,2.457,1.1,2.457,2.457v7.226C454.388,310.472,453.288,311.572,451.932,311.572z"/>
			<path style="fill:#001E6C;stroke:#FFFFFF;stroke-linecap:round;stroke-linejoin:round;stroke-miterlimit:10;" d="
				M475.215,441.371H354.137c-0.771,0-1.396-0.625-1.396-1.396v-9.348c0-0.771,0.625-1.396,1.396-1.396h121.077
				c0.771,0,1.396,0.625,1.396,1.396v9.348C476.61,440.746,475.985,441.371,475.215,441.371z"/>
			<path style="fill:#001E6C;stroke:#FFFFFF;stroke-linecap:round;stroke-linejoin:round;stroke-miterlimit:10;" d="
				M469.797,407.752l-19.78-15.762h-34.962h-34.962l-19.779,15.762c-2.87,2.287-4.542,5.757-4.542,9.427
				c0,6.657,5.397,12.054,12.054,12.054h47.229h47.23c6.657,0,12.054-5.397,12.054-12.054
				C474.339,413.509,472.667,410.039,469.797,407.752z"/>
			<path style="fill:#001E6C;stroke:#FFFFFF;stroke-linecap:round;stroke-linejoin:round;stroke-miterlimit:10;" d="M451.932,395.03
				H377.42c-1.357,0-2.457-1.1-2.457-2.457v-7.226c0-1.357,1.1-2.456,2.457-2.456h74.512c1.357,0,2.457,1.1,2.457,2.456v7.226
				C454.388,393.93,453.288,395.03,451.932,395.03z"/>
			<path style="fill:#001E6C;stroke:#FFFFFF;stroke-linecap:round;stroke-linejoin:round;stroke-miterlimit:10;" d="
				M421.714,202.676c0-3.496-2.834-6.329-6.329-6.329c-3.496,0-6.329,2.834-6.329,6.329c0,3.496,2.834,6.329,6.329,6.329
				C418.88,209.005,421.714,206.171,421.714,202.676z"/>
		</g>
		<g>
			<path style="fill:#FFFFFF;stroke:#001E6C;stroke-linecap:round;stroke-linejoin:round;stroke-miterlimit:10;" d="
				M273.196,441.371H152.118c-0.771,0-1.396-0.625-1.396-1.396v-9.348c0-0.771,0.625-1.396,1.396-1.396h121.077
				c0.771,0,1.396,0.625,1.396,1.396v9.348C274.591,440.746,273.966,441.371,273.196,441.371z"/>
			<path style="fill:#FFFFFF;stroke:#001E6C;stroke-linecap:round;stroke-linejoin:round;stroke-miterlimit:10;" d="
				M267.398,407.752l-19.779-15.762h-34.962h-34.962l-19.779,15.762c-2.87,2.287-4.542,5.757-4.542,9.427
				c0,6.657,5.397,12.054,12.054,12.054h47.23h47.23c6.657,0,12.054-5.397,12.054-12.054
				C271.94,413.509,270.268,410.039,267.398,407.752z"/>
			<polygon style="fill:#FFFFFF;stroke:#001E6C;stroke-linecap:round;stroke-linejoin:round;stroke-miterlimit:10;" points="
				185.138,294.208 172.977,284.47 252.337,284.47 240.176,294.208 			"/>
			<path style="fill:#FFFFFF;stroke:#001E6C;stroke-linecap:round;stroke-linejoin:round;stroke-miterlimit:10;" d="
				M240.176,294.208h-55.038c0.457,10.943,2.045,65.479-10.214,92.993h75.465C238.13,359.686,239.719,305.151,240.176,294.208z"/>
			<path style="fill:#FFFFFF;stroke:#001E6C;stroke-linecap:round;stroke-linejoin:round;stroke-miterlimit:10;" d="M249.913,395.03
				h-74.512c-1.357,0-2.457-1.1-2.457-2.457v-7.226c0-1.357,1.1-2.456,2.457-2.456h74.512c1.357,0,2.456,1.1,2.456,2.456v7.226
				C252.369,393.93,251.27,395.03,249.913,395.03z"/>
			<path style="fill:#FFFFFF;stroke:#001E6C;stroke-linecap:round;stroke-linejoin:round;stroke-miterlimit:10;" d="
				M241.406,297.177h-57.498c-2.292,0-4.15-1.858-4.15-4.15v-1.74h65.799v1.74C245.556,295.319,243.698,297.177,241.406,297.177z"/>
			<g>
				
					<rect x="172.977" y="253.797" style="fill:#FFFFFF;stroke:#001E6C;stroke-linecap:round;stroke-linejoin:round;stroke-miterlimit:10;" width="79.36" height="30.673"/>
				
					<rect x="189.393" y="253.797" style="fill:#FFFFFF;stroke:#001E6C;stroke-linecap:round;stroke-linejoin:round;stroke-miterlimit:10;" width="5.132" height="23.542"/>
				
					<rect x="231.136" y="253.797" style="fill:#FFFFFF;stroke:#001E6C;stroke-linecap:round;stroke-linejoin:round;stroke-miterlimit:10;" width="5.132" height="23.542"/>
			</g>
		</g>
		<g>
			<path style="fill:#FFFFFF;stroke:#001E6C;stroke-linecap:round;stroke-linejoin:round;stroke-miterlimit:10;" d="
				M581.243,441.371H460.165c-0.771,0-1.396-0.625-1.396-1.396v-9.348c0-0.771,0.625-1.396,1.396-1.396h121.077
				c0.771,0,1.396,0.625,1.396,1.396v9.348C582.638,440.746,582.014,441.371,581.243,441.371z"/>
			<path style="fill:#FFFFFF;stroke:#001E6C;stroke-linecap:round;stroke-linejoin:round;stroke-miterlimit:10;" d="
				M575.826,407.752l-19.78-15.762h-34.962h-34.962l-19.779,15.762c-2.87,2.287-4.542,5.757-4.542,9.427
				c0,6.657,5.397,12.054,12.053,12.054h47.23h47.23c6.657,0,12.054-5.397,12.054-12.054
				C580.367,413.509,578.695,410.039,575.826,407.752z"/>
			<path style="fill:#FFFFFF;stroke:#001E6C;stroke-linecap:round;stroke-linejoin:round;stroke-miterlimit:10;" d="M557.96,395.03
				h-74.512c-1.357,0-2.456-1.1-2.456-2.457v-7.226c0-1.357,1.1-2.456,2.456-2.456h74.512c1.357,0,2.456,1.1,2.456,2.456v7.226
				C560.417,393.93,559.317,395.03,557.96,395.03z"/>
			<path style="fill:#FFFFFF;stroke:#001E6C;stroke-linecap:round;stroke-linejoin:round;stroke-miterlimit:10;" d="
				M570.374,385.385h-99.339c-0.771,0-1.396-0.625-1.396-1.396v-9.348c0-0.771,0.625-1.396,1.396-1.396h99.339
				c0.771,0,1.396,0.625,1.396,1.396v9.348C571.769,384.76,571.144,385.385,570.374,385.385z"/>
			<g>
				<path style="fill:#FFFFFF;stroke:#001E6C;stroke-linecap:round;stroke-linejoin:round;stroke-miterlimit:10;" d="
					M531.927,204.131v14.588H475.94v6.703l-8.856,4.807c-3.047,1.654-4.944,4.842-4.944,8.309v8.174h16.362
					c2.504,0,4.534,2.03,4.534,4.534l0,0c0,2.504-2.03,4.534-4.534,4.534h-14.785l0,0c0,3.487,2.418,6.505,5.822,7.263
					c3.993,0.889,8.95,2.518,11.131,5.354c0,0,11.434-13.405,35.09,0c0,0-48.889,54.015-49.678,67.026
					c-0.789,13.011,0,44.158,0,44.158h110.789c0,0-18.925-36.273-10.251-61.112s20.108-36.667,16.559-66.631
					C579.633,221.873,566.228,199.399,531.927,204.131z"/>
				<path style="fill:#FFFFFF;stroke:#001E6C;stroke-linecap:round;stroke-linejoin:round;stroke-miterlimit:10;" d="
					M583.182,251.837c-3.548-29.964-16.954-52.438-51.255-47.706v14.588h24.05c0,0,11.828,9.857,12.222,28.782
					c0.394,18.925-12.617,52.043-14.982,81.219c-2.185,26.949,6.052,47.828,7.323,50.861h16.333c0,0-18.925-36.273-10.251-61.112
					C575.296,293.629,586.73,281.801,583.182,251.837z"/>
				
					<circle style="fill:#FFFFFF;stroke:#001E6C;stroke-linecap:round;stroke-linejoin:round;stroke-miterlimit:10;" cx="519.704" cy="228.969" r="5.914"/>
				<path style="fill:#FFFFFF;stroke:#001E6C;stroke-linecap:round;stroke-linejoin:round;stroke-miterlimit:10;" d="
					M543.755,223.055c0,0,18.136-4.337,26.416-1.971s8.674,5.52,5.914,7.885c-2.76,2.366-25.233,7.097-25.233,7.097"/>
				<path style="fill:#FFFFFF;stroke:#001E6C;stroke-linecap:round;stroke-linejoin:round;stroke-miterlimit:10;" d="
					M515.761,268.396c0,0,9.857,5.52,17.348,4.337s20.108-20.896,20.108-20.896"/>
			</g>
		</g>
	</g>
</g>
</svg>
